<?xml version="1.0" encoding="utf-8"?>
<!-- Generator: Adobe Illustrator 28.3.0, SVG Export Plug-In . SVG Version: 6.00 Build 0)  -->
<svg version="1.1" id="Calque_1" xmlns="http://www.w3.org/2000/svg" xmlns:xlink="http://www.w3.org/1999/xlink" x="0px" y="0px"
	 viewBox="0 0 776.7 776" style="enable-background:new 0 0 776.7 776;" xml:space="preserve">
<style type="text/css">
	.st0{opacity:0.2;fill:#599EBE;}
	.st1{clip-path:url(#SVGID_00000095310881480166881480000015497723215147505566_);}
	.st2{clip-path:url(#SVGID_00000067228274947505181710000010899716969871929241_);}
	.st3{clip-path:url(#SVGID_00000067228274947505181710000010899716969871929241_);fill:#5DA0CE;}
	.st4{fill:#81ABDA;}
	.st5{fill:#669CD0;}
	.st6{fill:#7297CF;}
	.st7{fill:none;stroke:#FFFFFF;stroke-width:3;stroke-miterlimit:10;}
	.st8{fill:#FFFFFF;}
</style>
<circle class="st0" cx="396.8" cy="409.3" r="291.7"/>
<g>
	<g>
		<g>
			<defs>
				<rect id="SVGID_1_" x="246.3" y="263.3" width="301.3" height="301.3"/>
			</defs>
			<clipPath id="SVGID_00000158747213554702083400000002586916192347486111_">
				<use xlink:href="#SVGID_1_"  style="overflow:visible;"/>
			</clipPath>
			<g style="clip-path:url(#SVGID_00000158747213554702083400000002586916192347486111_);">
				<defs>
					<rect id="SVGID_00000023267096986318581960000012732063288810298528_" x="246.3" y="263.3" width="301.3" height="301.3"/>
				</defs>
				<clipPath id="SVGID_00000039843899033322386960000008640461941974990225_">
					<use xlink:href="#SVGID_00000023267096986318581960000012732063288810298528_"  style="overflow:visible;"/>
				</clipPath>
				<path style="clip-path:url(#SVGID_00000039843899033322386960000008640461941974990225_);" d="M419.4,425.5l27,10.3
					c-1.8,9.5-4.7,17.4-8.6,23.7c-3.9,6.4-8.8,11.1-14.6,14.4s-13.2,4.9-22.1,4.9c-10.9,0-19.8-2-26.6-5.9
					c-6.9-3.9-12.8-10.9-17.8-20.8c-5-9.9-7.5-22.6-7.5-38.1c0-20.6,4.4-36.5,13.2-47.5c8.8-11.1,21.2-16.6,37.3-16.6
					c12.6,0,22.4,3.2,29.6,9.5c7.2,6.4,12.5,16.1,16.1,29.3l-27.3,7.6c-0.9-3.8-1.9-6.6-3-8.3c-1.7-3-3.8-5.2-6.3-6.8
					c-2.5-1.6-5.3-2.4-8.4-2.4c-7,0-12.3,3.5-16.1,10.5c-2.8,5.2-4.2,13.4-4.2,24.6c0,13.8,1.7,23.3,5.1,28.4
					c3.4,5.1,8.1,7.7,14.2,7.7c6.1,0,10.4-2.1,13.4-6.2C415.8,439.5,418,433.5,419.4,425.5"/>
				<path style="clip-path:url(#SVGID_00000039843899033322386960000008640461941974990225_);fill:#5DA0CE;" d="M537.6,379.9
					l-27.8,4.2c-0.8-4.8-2-8.2-3.7-10.2c-1.7-2-3.8-3-6.3-3c-4.5,0-8,2.8-10.5,8.5c-1.8,4.1-3.2,12.8-4.1,26.2
					c3.3-4.2,6.8-7.3,10.3-9.3c3.5-2,7.6-3,12.2-3c8.9,0,16.5,4,22.7,11.9s9.3,18,9.3,30.3c0,8.2-1.6,15.8-4.7,22.6
					c-3.1,6.8-7.4,12-13,15.5c-5.5,3.5-12.5,5.2-20.8,5.2c-10,0-18-2.1-24.1-6.4c-6.1-4.2-10.9-11-14.5-20.4
					c-3.6-9.3-5.5-21.7-5.5-37c0-22.5,3.8-39,11.4-49.5c7.6-10.5,18.2-15.7,31.6-15.7c8,0,14.3,1.1,18.9,3.4
					c4.6,2.3,8.4,5.6,11.5,10.1C533.6,367.7,536,373.2,537.6,379.9 M486.2,435.5c0,6.8,1.4,12.1,4.1,15.9c2.7,3.9,6.1,5.8,10.1,5.8
					c3.6,0,6.7-1.7,9.2-5.2c2.4-3.5,3.7-8.6,3.7-15.5s-1.3-12.4-3.9-16.1c-2.6-3.7-5.7-5.5-9.5-5.5c-3.8,0-7.1,1.8-9.7,5.4
					C487.5,423.8,486.2,428.9,486.2,435.5"/>
				<path style="clip-path:url(#SVGID_00000039843899033322386960000008640461941974990225_);" d="M263.3,362.7
					c3.1-4.4,6.9-7.8,11.5-10.1s10.9-3.4,18.9-3.4c13.5,0,24,5.2,31.6,15.7c7.6,10.5,11.4,26.9,11.4,49.5c0,15.4-1.8,27.7-5.5,37.1
					s-8.5,16.1-14.5,20.4c-6.1,4.2-14.1,6.4-24.1,6.4c-8.3,0-15.3-1.7-20.8-5.2c-5.5-3.5-9.9-8.6-13-15.5
					c-3.1-6.8-4.7-14.3-4.7-22.6c0-12.2,3.1-22.3,9.3-30.3c6.2-8,13.8-11.9,22.7-11.9c4.6,0,8.7,1,12.2,3c3.5,2,6.9,5.1,10.3,9.3
					c-0.9-13.3-2.3-22.1-4.1-26.2c-2.5-5.7-6-8.5-10.5-8.5c-2.5,0-4.6,1-6.3,3c-1.7,2-2.9,5.4-3.7,10.2l-27.8-4.2
					C257.9,372.6,260.2,367.1,263.3,362.7 M303.8,419.6c-2.6-3.6-5.9-5.4-9.8-5.4c-3.9,0-6.9,1.8-9.5,5.5c-2.6,3.7-3.9,9.1-3.9,16.1
					s1.2,12.1,3.7,15.5c2.4,3.5,5.5,5.2,9.2,5.2c4,0,7.4-1.9,10.1-5.8c2.7-3.8,4.1-9.2,4.1-15.9
					C307.7,428.1,306.4,423.1,303.8,419.6"/>
			</g>
		</g>
	</g>
	<g>
		
			<image style="overflow:visible;opacity:0.3;" width="1361" height="1899" xlink:href="C822A68ED7A3D73A.png"  transform="matrix(0.24 0 0 0.24 443.8809 320.7572)">
		</image>
		<g>
			<g>
				<g>
					<path class="st4" d="M600.7,415c0-17.2-2.1-33.9-6.1-49.8l142.9-36.4c38,148.8-25.4,310.6-165,391.2
						c-26.6,15.3-52.9,26.7-80.2,34.5L452,611.4C537.8,587.3,600.7,508.5,600.7,415z"/>
				</g>
			</g>
		</g>
	</g>
	<g>
		<g>
			<g>
				<path class="st4" d="M682.1,664.6l-8.2,9.9l-5.9-4.9l22.1-26.5l5.9,4.9l-8.2,9.9l24.7,20.6l-5.6,6.7L682.1,664.6z"/>
				<path class="st4" d="M708.9,661.4c-6.6-4.6-8.1-13.4-3.2-20.5s13.7-8.9,20.3-4.3s8.1,13.4,3.2,20.5S715.5,665.9,708.9,661.4z
					 M721.3,643.4c-3.2-2.2-7.4-1.6-9.6,1.5s-1.2,7.3,2,9.5c3.2,2.2,7.4,1.6,9.6-1.5S724.5,645.7,721.3,643.4z"/>
				<path class="st4" d="M728.4,632.7c-7-3.9-9.4-12.5-5.3-20.1c4.1-7.6,12.7-10.2,19.7-6.4s9.4,12.5,5.3,20.1
					C744,633.9,735.5,636.5,728.4,632.7z M738.9,613.6c-3.4-1.9-7.6-0.8-9.4,2.5c-1.8,3.3-0.5,7.4,3,9.3c3.4,1.9,7.6,0.8,9.4-2.5
					C743.6,619.5,742.3,615.4,738.9,613.6z"/>
				<path class="st4" d="M719.4,588.9l3.5-7.6l38.2,17.4l-3.5,7.6L719.4,588.9z"/>
				<path class="st4" d="M762.5,591.4l-6.7-2.6c3.4-2.6,5.9-6.7,6.9-9.2c0.9-2.3,0.7-3.9-0.5-4.3c-1.1-0.4-1.8,0.2-3.1,2.1
					s-3.3,5.3-5.3,7.1s-4.3,2.3-7.3,1.2c-5.6-2.1-6.8-7.7-4.4-14.1c1.2-3.1,3.4-6.7,5.7-8.9l6.3,2.4c-3,2.7-5.1,6.2-6,8.5
					c-0.8,2.1-0.7,3.6,0.5,4c1.1,0.4,1.9-0.4,3.1-2.2c1.2-1.8,3.2-5.2,5.2-7c2.1-1.9,4.4-2.3,7.4-1.2c6,2.3,6.7,8.2,4.3,14.6
					C767.4,585.1,765.2,589,762.5,591.4z"/>
			</g>
		</g>
	</g>
	<g>
		
			<image style="overflow:visible;opacity:0.3;" width="2173" height="981" xlink:href="C822A68ED7A3D739.png"  transform="matrix(0.24 0 0 0.24 143.1609 56.0372)">
		</image>
		<g>
			<g>
				<g>
					<path class="st5" d="M151.3,163.9C261.2,56.6,433,30.7,572.5,111.2c26.6,15.4,49.7,32.6,70.1,52.4L539.4,269.3
						c-36.8-36-87.1-58.2-142.7-58.2c-55.5,0-105.9,22.2-142.7,58.2L151.3,163.9z"/>
				</g>
			</g>
		</g>
	</g>
	<g>
		<g>
			<path class="st5" d="M397.9,191.1"/>
			<g>
				<path class="st5" d="M296.1,25.7L283.6,29l-1.9-7.4l33.4-8.8l1.9,7.4l-12.4,3.3l8.2,31.1l-8.5,2.2L296.1,25.7z"/>
				<path class="st5" d="M319,25.1l8-1.6l0.7,3.6l0.1,0c1.3-2.9,3.7-4.8,7-5.4c0.5-0.1,1.1-0.2,1.8-0.1l1.5,7.7
					c-0.7,0-1.5,0-2.3,0.2c-2.9,0.6-5.1,1.9-6.6,4.5l3.1,16.3l-8.2,1.6L319,25.1z"/>
				<path class="st5" d="M365.5,46c-2.7,0.3-4.9-0.3-6.4-1.7c-1.6,1.6-4.2,3.1-7.4,3.5c-5.5,0.7-9.8-1.8-10.5-7.1
					c-0.7-5.8,3.3-9,10.1-9.8c1.5-0.2,3.2-0.3,4.7-0.2l-0.1-1c-0.3-2.8-2.4-3.8-6.3-3.3c-3.2,0.4-5.8,1.6-7.5,2.7l-0.8-6.7
					c1.9-1.4,5.1-2.7,9.1-3.2c7.5-0.9,12.7,1.7,13.5,8.5l1.2,9.6c0.1,1.1,0.8,1.9,2.3,1.7c0.5-0.1,1-0.2,1.4-0.5l0.8,6.2
					C368.5,45.3,367,45.8,365.5,46z M357.1,39.8l-0.5-4.2c-0.8-0.1-2.2-0.1-3.3,0.1c-2.5,0.3-4.4,1.3-4.1,3.5c0.2,2,1.8,2.6,3.9,2.3
					C354.7,41.3,356.3,40.6,357.1,39.8z"/>
				<path class="st5" d="M370.1,9.4c-0.2-2.6,1.9-4.9,4.5-5.1c2.6-0.2,5,1.8,5.1,4.5c0.2,2.6-1.9,4.9-4.5,5.1
					C372.6,14.1,370.2,12.1,370.1,9.4z M371.2,17.7l8.3-0.5l1.6,27.2l-8.3,0.5L371.2,17.7z"/>
				<path class="st5" d="M387.7,16.7l8.2,0.1l0,2.3l0.1,0.1c2.1-1.7,5-2.9,8.3-2.9c3,0,5.4,1,7.1,2.9c1.7,1.9,2.3,4.3,2.3,7.9
					l-0.1,17.2l-8.4-0.1l0.1-16c0-1.6-0.3-2.8-1-3.6c-0.8-0.8-1.8-1.1-3.1-1.1c-2,0-4,0.9-5.3,2L395.9,44l-8.4-0.1L387.7,16.7z"/>
				<path class="st5" d="M421.9,17.5l8.3,0.6l-2,27.2l-8.3-0.6L421.9,17.5z M421.8,9.1c0.2-2.6,2.5-4.6,5.2-4.4
					c2.6,0.2,4.7,2.5,4.5,5.1c-0.2,2.6-2.5,4.6-5.2,4.4C423.7,14,421.7,11.7,421.8,9.1z"/>
				<path class="st5" d="M438.3,18.7l8.2,1.2l-0.3,2.2l0.1,0.1c2.3-1.4,5.3-2.2,8.6-1.7c3,0.4,5.3,1.7,6.7,3.8s1.7,4.6,1.2,8.2
					l-2.4,17l-8.3-1.2l2.2-15.8c0.2-1.6,0.1-2.8-0.5-3.7s-1.6-1.3-2.9-1.5c-2-0.3-4,0.3-5.5,1.3l-2.6,18.5l-8.3-1.2L438.3,18.7z"/>
				<path class="st5" d="M475.1,58.5c4.6,1.1,7.7-0.9,8.6-4.9l0.3-1.2l-0.1-0.1c-2,0.8-4.3,0.9-6.7,0.3c-6.6-1.6-11-7.9-9.2-15.7
					c1.9-7.9,9-12.5,17.3-10.5c2.8,0.7,5.1,2,6.9,3.6l5.8-0.1l-6.1,25.8c-2,8.5-9,11.8-17.6,9.7c-3.5-0.8-6.8-2.5-8.8-4.3l1.7-7.2
					C469.3,56.1,472.2,57.8,475.1,58.5z M480.8,46.5c1.7,0.4,3.4,0.2,4.6-0.3l2.6-11c-1-0.8-2.3-1.6-3.8-1.9c-4.2-1-7.1,1.6-8,5.2
					C475.4,42.3,477,45.6,480.8,46.5z"/>
			</g>
		</g>
	</g>
	<g>
		
			<image style="overflow:visible;opacity:0.3;" width="1361" height="1898" xlink:href="C822A68ED7A3D745.png"  transform="matrix(0.24 0 0 0.24 37.0809 320.5172)">
		</image>
		<g>
			<g>
				<g>
					<path class="st6" d="M45.3,415.6c0-30.8,3.3-59.3,10.3-86.9L199,365.2c-4,16-6.1,32.6-6.1,49.8c0,93.5,62.9,172.3,148.7,196.4
						L301.4,754C153.6,712.5,45.3,576.7,45.3,415.6z"/>
				</g>
			</g>
		</g>
	</g>
	<g>
		<g>
			<g>
				<path class="st6" d="M6.3,512.5c-2.4-12.5,4.6-22.9,16-25.1c11.5-2.2,21.9,4.9,24.3,17.4c0.8,4.2,0.6,8.3-0.6,11.7l-8.5,1.6
					c1.5-3.4,2.2-7.6,1.4-11.5c-1.5-7.7-7.8-11.9-14.9-10.6s-11.5,7.6-10,15.7c0.8,4,2.9,7.6,5.6,10.2l-8.4,1.6
					C8.8,520.7,7.1,516.5,6.3,512.5z"/>
				<path class="st6" d="M23.8,526.1c7.7-2.4,15.5,2,18,10.2c2.5,8.3-1.5,16.2-9.2,18.6c-7.7,2.4-15.5-2-18-10.2
					C12,536.4,16.1,528.4,23.8,526.1z M30.2,546.9c3.7-1.1,5.9-4.9,4.8-8.5c-1.1-3.6-5-5.5-8.7-4.3c-3.7,1.1-5.9,4.9-4.8,8.5
					C22.6,546.2,26.4,548,30.2,546.9z"/>
				<path class="st6" d="M47.4,555.4l3.2,7.6l-2.1,0.9l0,0.1c2.4,1.3,4.6,3.4,5.9,6.5c1.2,2.8,1.3,5.4,0.2,7.7
					c-1.1,2.3-3,3.8-6.4,5.3l-15.8,6.7l-3.3-7.7l14.7-6.2c1.5-0.6,2.5-1.3,2.9-2.4c0.4-1,0.3-2.1-0.2-3.3c-0.8-1.8-2.4-3.3-3.9-4.1
					l-17.2,7.3l-3.3-7.7L47.4,555.4z"/>
				<path class="st6" d="M37.5,596.4l6.3-3.4c-0.2,4.3,1.1,8.9,2.4,11.2c1.1,2.1,2.5,3.1,3.6,2.5c1.1-0.6,1.1-1.5,0.4-3.7
					c-0.6-2.2-1.8-6-1.9-8.7c-0.1-2.7,1.1-4.8,3.9-6.3c5.3-2.8,10.3-0.1,13.5,5.9c1.6,2.9,2.9,7,3,10.2l-6,3.2
					c-0.1-4-1.3-8-2.5-10.1c-1-1.9-2.2-2.9-3.4-2.2c-1.1,0.6-0.9,1.7-0.3,3.8c0.6,2.1,1.8,5.8,1.9,8.5c0.1,2.8-1.1,4.8-4,6.4
					c-5.6,3-10.6-0.4-13.8-6.3C39.1,604.3,37.5,600,37.5,596.4z"/>
				<path class="st6" d="M62.3,637.8l0-0.1c-2.6-0.8-5-2.6-6.8-5.2c-1.7-2.5-2.3-5.1-1.6-7.7c0.7-2.6,2.2-4.4,5.4-6.5l14.1-9.4
					l4.6,7l-13,8.6c-1.7,1.1-2.5,2-2.8,3.1c-0.3,1.1,0.2,2.4,0.9,3.4c1,1.6,2.7,2.6,4.4,3.2l15.7-10.4l4.6,7l-22.8,15.1l-4.6-6.9
					L62.3,637.8z"/>
				<path class="st6" d="M103.7,627l5.1,6.6l-33.2,25.7l-5.1-6.6L103.7,627z"/>
				<path class="st6" d="M99.8,646.1l3,3.4l5.1-4.4l7,4.9l-6.6,5.7l4.8,5.5l-5.2,4.5l-4.8-5.5l-7.3,6.3c-2.2,1.9-2.5,3.8-0.9,5.6
					c0.8,1,2,1.7,2.9,2.2l-5,4.3c-1.4-0.6-3.3-2-4.8-3.7c-4.3-4.9-3.5-9.7,1.6-14.1l7.9-6.9l-3-3.4L99.8,646.1z"/>
				<path class="st6" d="M116.2,664.6l5.8,6l-19.5,19l-5.8-6L116.2,664.6z M121.8,658.2c1.9-1.8,5-1.8,6.8,0.1c1.8,1.9,1.8,5,0,6.8
					c-1.9,1.8-5,1.8-6.8-0.1C119.9,663.2,119.9,660.1,121.8,658.2z"/>
				<path class="st6" d="M126.7,675.4l6.2,5.5l-1.5,1.7l0,0.1c2.7,0.1,5.6,1.1,8.2,3.3c2.3,2,3.5,4.3,3.5,6.8c0,2.5-1.1,4.8-3.5,7.5
					l-11.4,12.8l-6.3-5.5l10.6-12c1.1-1.2,1.7-2.3,1.6-3.4c-0.1-1.1-0.6-2-1.6-2.9c-1.5-1.3-3.5-2-5.3-2l-12.4,14l-6.3-5.5
					L126.7,675.4z"/>
				<path class="st6" d="M140.5,729.6c3.8,2.8,7.4,2.1,9.8-1.2l0.7-1l-0.1-0.1c-2.1,0-4.4-0.8-6.4-2.3c-5.5-4-7.2-11.5-2.5-18
					c4.8-6.6,13.1-8.2,20-3.2c2.3,1.7,3.9,3.8,5,6l5.4,2.1L157,733.5c-5.1,7.1-12.8,7.5-20,2.3c-2.9-2.1-5.3-4.9-6.5-7.3l4.3-6
					C136,725.2,138.1,727.9,140.5,729.6z M150.3,720.8c1.4,1,3,1.4,4.4,1.5l6.6-9.2c-0.6-1.1-1.6-2.3-2.8-3.2
					c-3.5-2.5-7.2-1.2-9.4,1.8C147,714.8,147.2,718.5,150.3,720.8z"/>
			</g>
			<path class="st6" d="M127.9,436.1"/>
		</g>
	</g>
	<g>
		<g>
			<path class="st7" d="M670.9,527.3c-0.2-0.3-0.4-0.5-0.6-0.7c-1.7-1.7-3.4-3.4-5.1-5.1c-0.5-0.6-1-0.6-1.6-0.1
				c-1.9,1.4-3.9,2.8-5.9,4.3c-1.2,0.9-2.3,1-3.6,0.3c-2.5-1.4-5.2-2.5-8-3.3c-1.2-0.3-2-1.1-2.2-2.4c-0.4-2.5-0.9-5-1.2-7.4
				c-0.1-0.7-0.4-1-1.2-1c-2.4,0-4.8,0-7.2,0c-0.7,0-1,0.2-1.1,0.9c-0.4,2.4-0.9,4.8-1.2,7.3c-0.2,1.6-1,2.5-2.5,2.9
				c-2.6,0.7-5.1,1.7-7.4,3.1c-1.3,0.8-2.5,0.7-3.8-0.2c-2-1.5-4-2.8-6-4.3c-0.5-0.4-0.9-0.4-1.3,0.1c-1.7,1.8-3.5,3.5-5.2,5.2
				c-0.5,0.5-0.5,0.9-0.1,1.4c1.5,2,2.9,4.1,4.3,6.1c0.9,1.2,0.9,2.3,0.3,3.7c-1.1,2.5-2.2,5-3.1,7.5c-0.5,1.5-1.4,2.2-2.9,2.5
				c-2.3,0.4-4.7,0.8-7,1.1c-0.8,0.1-1.1,0.4-1.1,1.3c0.1,2.3,0.1,4.6,0,6.9c0,0.9,0.4,1.2,1.2,1.3c2.4,0.4,4.8,0.8,7.3,1.2
				c1.4,0.2,2.2,1,2.6,2.4c0.7,2.7,1.8,5.2,3.2,7.5c0.8,1.3,0.7,2.5-0.2,3.8c-1.4,1.9-2.8,3.9-4.2,5.8c-0.4,0.6-0.5,1,0.1,1.6
				c1.7,1.7,3.4,3.4,5.1,5.1c0.5,0.5,0.9,0.6,1.5,0.1c2-1.5,4-2.8,6-4.3c1.2-0.9,2.4-0.9,3.8-0.3c2.4,1.1,4.8,2.1,7.3,3
				c1.5,0.5,2.3,1.4,2.5,2.9c0.3,2.4,0.8,4.7,1.1,7.1c0.1,0.7,0.4,1,1.1,1c2.4,0,4.7-0.1,7.1,0c0.8,0,1.2-0.3,1.3-1
				c0.4-2.4,0.8-4.7,1.1-7.1c0.2-1.5,1-2.3,2.5-2.9c2.5-0.9,5-1.9,7.4-3.1c1.4-0.7,2.6-0.7,3.9,0.3c1.9,1.4,3.9,2.8,5.8,4.2
				c0.6,0.4,1,0.4,1.5-0.1c1.7-1.7,3.4-3.4,5.1-5.1c0.6-0.5,0.6-1,0.1-1.6c-1.4-2-2.8-4-4.2-5.9c-0.9-1.2-0.9-2.3-0.3-3.7
				c1.1-2.5,2.2-5,3.1-7.5c0.5-1.5,1.4-2.3,2.9-2.5c2.3-0.3,4.7-0.8,7-1.1c0.8-0.1,1.1-0.4,1.1-1.2c-0.1-2.4-0.1-4.7,0-7.1
				c0-0.8-0.3-1.1-1-1.2c-2.4-0.4-4.7-0.8-7.1-1.2c-1.5-0.2-2.4-1-2.9-2.4c-0.9-2.5-1.9-5-3.1-7.4c-0.7-1.4-0.7-2.6,0.3-3.9
				c1.4-1.9,2.8-3.8,4.1-5.8C670.5,527.8,670.7,527.6,670.9,527.3z"/>
			<path class="st7" d="M639,573.9c-10.6,0.5-20-7.4-21.1-18.2c-1.2-12.1,7.7-21.3,18-22.4c12.1-1.2,21.4,7.6,22.5,18
				C659.7,563.6,650.2,573.6,639,573.9z"/>
		</g>
	</g>
	<g>
		<g>
			<path class="st8" d="M398,103.6c-3.5,0-7,0-10.6,0c-0.6,0-1.1-0.6-1.7-0.9c0.6-0.3,1.2-0.9,1.8-0.9c7.2-0.1,14.3-0.1,21.5,0
				c0.5,0,1.1,0.5,1.6,0.8c-0.5,0.3-1.1,1-1.6,1C405.3,103.7,401.6,103.6,398,103.6z"/>
			<g>
				<path class="st8" d="M413.5,92.8c3.4,1.2,4.7,3.7,4.6,7.3c-0.2,4.9,0,9.9-0.1,14.8c0,4-2.2,6.2-6.2,6.2
					c-5.4,0-10.8-0.1-16.1,0.1c-1.1,0-2.3,0.5-3.1,1.1c-2.3,1.8-4.5,3.9-6.8,5.7c-0.5,0.4-1.3,0.5-1.9,0.7c-0.2-0.6-0.5-1.3-0.4-1.9
					c0.1-1.8,0.3-3.7,0.4-5.5c-5-1.6-5.9-2.9-5.9-8.1c0-4.5,0.1-8.9,0-13.4c-0.1-3.6,1.3-6.1,4.7-7.2
					C393,92.8,403.2,92.8,413.5,92.8z M385.6,125.7c2.3-2,4.2-3.8,6.3-5.3c0.9-0.7,2.2-1.2,3.3-1.2c5.5-0.1,11,0,16.5-0.1
					c3.1,0,4.5-1.4,4.5-4.5c0-5.1,0-10.2,0-15.2c0-3.3-1.4-4.7-4.8-4.7c-8.8,0-17.7,0-26.5,0c-3.4,0-4.9,1.4-4.9,4.8
					c0,5,0,9.9,0,14.9c0,3.4,1.1,4.5,4.5,4.8c1.1,0.1,1.5,0.5,1.5,1.6C385.7,122.3,385.7,123.8,385.6,125.7z"/>
				<path class="st7" d="M431,164.7c-3.6,0-7,0-10.3,0c-0.5,3-0.3,3.9,2.4,5.1c2.5,1.1,5.1,1.8,7.7,2.5c3.6,1,5.2,2.6,5.3,5.8
					c-26.8,0-53.6,0-80.5,0c-0.4-3.9,1.8-7.5,5.8-8.8c2.4-0.8,4.9-1.2,7.3-1.9c0.9-0.3,1.9-0.7,2.7-1.2c2.4-1.7,2.6-4.2,0.9-6.7
					c-1.5-2.2-2.8-4.6-4-7c-0.4-0.8-0.4-2.1-0.1-2.9c0.9-2.2,1.1-4.5,1.2-6.8c0.2-3.5,2.3-5.8,5.4-7.2c3.1-1.4,6.4-1.4,9.6-0.2
					c3.9,1.5,5.8,4.6,6,8.7c0,1.4,0.4,2.9,0.8,4.3c0.9,3.3-0.1,6.1-1.9,8.7c-0.5,0.8-1.2,1.4-1.8,2.1c-2.2,2.5-1.8,5.4,1.2,7
					c1.8,0.9,3.9,1.4,6,1.8c2.6,0.5,3.7,2.4,5.4,4.6c0.2,0.3,1.6,3.1,2,3c2.3-0.7,1.9-4.7,7.2-5.7c2.7-1.2,3-2.1,2.6-5.3
					c-3.3,0-6.7,0-10.4,0c3.5-3.8,3.5-8.7,4.6-13.2c0.4-1.8,1.1-3.5,1.9-5.2c3.3-6.7,13.3-6.7,16.4-0.2c1.2,2.5,2.2,5.1,2.6,7.8
					C427.8,157.8,428.5,161.5,431,164.7z"/>
				<path class="st8" d="M421.1,105.3c2.5,0.5,4.3,2.1,4.3,4.4c0.2,5.2,0.2,10.5,0,15.7c-0.1,2.7-1.8,4-5.7,5.1
					c0.1,1.9,0.3,3.8,0.4,5.7c0,0.6-0.3,1.2-0.5,1.8c-0.5-0.2-1.1-0.4-1.6-0.8c-2.4-2.1-4.7-4.2-7.1-6.2c-0.7-0.6-1.7-1-2.6-1
					c-5.4-0.1-10.8,0-16.1,0c-0.6,0-1.2,0-2.3,0c2-2.1,3.6-3.8,5.4-5.4c0.4-0.3,1.1-0.3,1.7-0.3c6.1,0,12.1,0,18.2,0
					c4.1,0,5.9-1.8,5.9-5.9C421.1,114.1,421.1,109.8,421.1,105.3z"/>
				<path class="st8" d="M396,110.3c-2.8,0-5.7,0.1-8.5,0c-0.6,0-1.1-0.6-1.7-0.9c0.6-0.3,1.2-0.9,1.7-0.9c5.6-0.1,11.3-0.1,16.9,0
					c0.6,0,1.2,0.7,1.9,1c-0.6,0.3-1.2,0.8-1.8,0.8C401.7,110.4,398.9,110.3,396,110.3z"/>
			</g>
		</g>
	</g>
	<g>
		<g>
			<path class="st8" d="M161.4,519.1c-3.5,0-7,0-10.6,0c-0.6,0-1.1-0.6-1.7-0.9c0.6-0.3,1.2-0.9,1.8-0.9c7.2-0.1,14.3-0.1,21.5,0
				c0.5,0,1.1,0.5,1.6,0.8c-0.5,0.3-1.1,1-1.6,1C168.7,519.1,165,519.1,161.4,519.1z"/>
			<g>
				<path class="st8" d="M176.9,508.3c3.4,1.2,4.7,3.7,4.6,7.3c-0.2,4.9,0,9.9-0.1,14.8c0,4-2.2,6.2-6.2,6.2
					c-5.4,0-10.8-0.1-16.1,0.1c-1.1,0-2.3,0.5-3.1,1.1c-2.3,1.8-4.5,3.9-6.8,5.7c-0.5,0.4-1.3,0.5-1.9,0.7c-0.2-0.6-0.5-1.3-0.4-1.9
					c0.1-1.8,0.3-3.7,0.4-5.5c-5-1.6-5.9-2.9-5.9-8.1c0-4.5,0.1-8.9,0-13.4c-0.1-3.6,1.3-6.1,4.7-7.2
					C156.4,508.3,166.6,508.3,176.9,508.3z M149,541.2c2.3-2,4.2-3.8,6.3-5.3c0.9-0.7,2.2-1.2,3.3-1.2c5.5-0.1,11,0,16.5-0.1
					c3.1,0,4.5-1.4,4.5-4.5c0-5.1,0-10.2,0-15.2c0-3.3-1.4-4.7-4.8-4.7c-8.8,0-17.7,0-26.5,0c-3.4,0-4.9,1.4-4.9,4.8
					c0,5,0,9.9,0,14.9c0,3.4,1.1,4.5,4.5,4.8c1.1,0.1,1.5,0.5,1.5,1.6C149.1,537.8,149.1,539.2,149,541.2z"/>
				<path class="st7" d="M194.5,580.2c-3.6,0-7,0-10.3,0c-0.5,3-0.3,3.9,2.4,5.1c2.5,1.1,5.1,1.8,7.7,2.5c3.6,1,5.2,2.6,5.3,5.8
					c-26.8,0-53.6,0-80.5,0c-0.4-3.9,1.8-7.5,5.8-8.8c2.4-0.8,4.9-1.2,7.3-1.9c0.9-0.3,1.9-0.7,2.7-1.2c2.4-1.7,2.6-4.2,0.9-6.7
					c-1.5-2.2-2.8-4.6-4-7c-0.4-0.8-0.4-2.1-0.1-2.9c0.9-2.2,1.1-4.5,1.2-6.8c0.2-3.5,2.3-5.8,5.4-7.2c3.1-1.4,6.4-1.4,9.6-0.2
					c3.9,1.5,5.8,4.6,6,8.7c0,1.4,0.4,2.9,0.8,4.3c0.9,3.3-0.1,6.1-1.9,8.7c-0.5,0.8-1.2,1.4-1.8,2.1c-2.2,2.5-1.8,5.4,1.2,7
					c1.8,0.9,3.9,1.4,6,1.8c2.6,0.5,3.7,2.4,5.4,4.6c0.2,0.3,1.6,3.1,2,3c2.3-0.7,1.9-4.7,7.2-5.7c2.7-1.2,3-2.1,2.6-5.3
					c-3.3,0-6.7,0-10.4,0c3.5-3.8,3.5-8.7,4.6-13.2c0.4-1.8,1.1-3.5,1.9-5.2c3.3-6.7,13.3-6.7,16.4-0.2c1.2,2.5,2.2,5.1,2.6,7.8
					C191.2,573.2,191.9,576.9,194.5,580.2z"/>
				<path class="st8" d="M184.5,520.8c2.5,0.5,4.3,2.1,4.3,4.4c0.2,5.2,0.2,10.5,0,15.7c-0.1,2.7-1.8,4-5.7,5.1
					c0.1,1.9,0.3,3.8,0.4,5.7c0,0.6-0.3,1.2-0.5,1.8c-0.5-0.2-1.1-0.4-1.6-0.8c-2.4-2.1-4.7-4.2-7.1-6.2c-0.7-0.6-1.7-1-2.6-1
					c-5.4-0.1-10.8,0-16.1,0c-0.6,0-1.2,0-2.3,0c2-2.1,3.6-3.8,5.4-5.4c0.4-0.3,1.1-0.3,1.7-0.3c6.1,0,12.1,0,18.2,0
					c4.1,0,5.9-1.8,5.9-5.9C184.5,529.6,184.5,525.2,184.5,520.8z"/>
				<path class="st8" d="M159.4,525.8c-2.8,0-5.7,0.1-8.5,0c-0.6,0-1.1-0.6-1.7-0.9c0.6-0.3,1.2-0.9,1.7-0.9
					c5.6-0.1,11.3-0.1,16.9,0c0.6,0,1.2,0.7,1.9,1c-0.6,0.3-1.2,0.8-1.8,0.8C165.1,525.8,162.3,525.8,159.4,525.8z"/>
			</g>
		</g>
	</g>
</g>
</svg>
